<svg role="img" viewBox="0 0 24 24" xmlns="http://www.w3.org/2000/svg"><title>Bandit</title><path d="M22.694 9.225c-.028.141-.066.273-.094.415-1.065 4.617-3.496 10.43-9.065 14.35V24c-4.582-3.22-7.04-7.717-8.363-11.784l-.504.373-.405-.754c-.057-.094-.311-.631-.095-1.357.064-.214.164-.42.298-.618-.68-.107-1.452-.375-2.292-.791l-.909-.449.573-.842c.067-.096.747-.994 2.123-.994.683 0 1.428.23 2.196.668v-.083C6.157 3.307 9.464 0 13.525 0h.02c4.06 0 7.368 3.307 7.368 7.369v.084c.31-.037.584-.009.81.066 0 .01 0 .01.01.01a1.5 1.5 0 0 1 .509.292c.028.028.056.047.094.085.348.339.47.848.358 1.319Zm-16.01 3.486c.311.67 1.715 2.808 6.794 3.459.076.009.094.122.02.15-.745.283-2.564 1-4.203.255.273.31.98.791 2.76.999.066.009.085.113.02.141-.481.217-1.66.612-2.79.179a19.838 19.838 0 0 0 4.269 4.57c2.845-2.205 4.758-4.956 6.05-7.727-.68.387-1.367.443-1.96.368a4.41 4.41 0 0 1-1.49-.49c-.084-.038-.047-.16.038-.16 2.148.018 3.515-.99 4.193-1.678.01-.009.02-.018.028-.028.34-.914.613-1.818.867-2.704l-.018.019c0-.01.009-.029.009-.048-.433.434-.914.83-1.413 1.188a11.105 11.105 0 0 1-3.949 1.771c-.753.17-1.536.264-2.337.274h-.009c-.81 0-1.592-.104-2.346-.274a11.105 11.105 0 0 1-4.541-2.223 3.887 3.887 0 0 1-.455.574c.14.458.296.922.463 1.385Zm.773-5.333c0 1.121.311 2.167.839 3.072a9.818 9.818 0 0 0 5.248 1.574c1.875-.01 3.694-.585 5.24-1.574-.003 0-.005 0 0 0 .536-.905.838-1.95.838-3.072A6.08 6.08 0 0 0 13.544 1.3h-.01a6.08 6.08 0 0 0-6.077 6.078Zm-4.477.715c-.075.052-.133.1-.178.143 1.046.505 1.776.66 2.309.66.432 0 .693-.1.867-.206.158-.097.088-.055.118-.08-.913-.615-1.58-.798-2.135-.798-.457 0-.765.136-.98.281Zm1.923 3.393c1.131-.83 1.368-1.462 1.386-1.818a2.61 2.61 0 0 1-.884.231c-.91.832-.502 1.587-.502 1.587Zm8.632-8.14a4.02 4.02 0 0 1 4.023 4.023c0 2.223-1.8 4.023-4.023 4.023A4.021 4.021 0 0 1 9.51 7.37c-.01-2.215 1.8-4.024 4.024-4.024Zm1.385.857a1.85 1.85 0 0 0-1.847 1.846 1.85 1.85 0 0 0 1.847 1.847 1.85 1.85 0 0 0 1.847-1.847 1.85 1.85 0 0 0-1.847-1.846Zm-1.998 4.909a.865.865 0 0 0-.867-.867.865.865 0 0 0-.866.867c0 .48.386.867.866.867a.87.87 0 0 0 .867-.867Z"/></svg>