<svg role="img" viewBox="0 0 24 24" xmlns="http://www.w3.org/2000/svg"><title>mypy</title><path d="M3.601 10.228v1.066c0 .644-.656.634-.656.634H1.778c-.7 0-.678.689-.678.689v.577H.689S0 13.238 0 11.994c0-1.245.789-1.155.789-1.155h1.645v-.167H1.257l-.002-.554s-.077-.535 1.157-.535c1.289 0 1.189.645 1.189.645Zm-2.05-.06a.211.211 0 1 0 .423 0 .211.211 0 0 0-.423 0Zm-.294 3.604v-1.066c0-.644.656-.634.656-.634h1.168c.7 0 .678-.689.678-.689v-.577h.411s.689-.044.689 1.2c0 1.245-.79 1.155-.79 1.155H2.425v.167h1.177l.001.554s.077.535-1.156.535c-1.289 0-1.19-.645-1.19-.645Zm2.051.06a.211.211 0 0 0-.212-.211.211.211 0 1 0 0 .423.212.212 0 0 0 .212-.212Zm2.497-1.218h.466v.56h-.466Zm0-1.776h.466v.56h-.466Zm4.786.284a.89.89 0 0 1 .349-.357.98.98 0 0 1 .513-.121c.258 0 .456.09.596.271.14.179.21.435.21.768v1.491h-.409v-1.478c0-.237-.041-.413-.125-.527-.084-.115-.212-.172-.384-.172a.628.628 0 0 0-.499.209c-.122.14-.183.33-.183.572v1.396h-.408v-1.478c0-.238-.042-.414-.126-.527-.084-.115-.213-.172-.388-.172a.62.62 0 0 0-.494.211c-.122.14-.183.33-.183.57v1.396h-.409v-2.471h.409v.329a.76.76 0 0 1 .318-.292c.129-.072.298-.096.476-.096.179 0 .332.045.457.136.126.092.219.169.28.342Zm3.508 2.282c-.115.294-.227.486-.336.575a.664.664 0 0 1-.437.135h-.324v-.34h.238a.39.39 0 0 0 .261-.079c.062-.053.13-.178.205-.375l.073-.186-1-2.431h.431l.772 1.933.772-1.933h.43Zm1.608-3.663h.935v.316h-.529v3.397h.529v.316h-.935Zm2.195 3.062v1.311h-.408v-3.411h.408v.375a.834.834 0 0 1 .322-.326.958.958 0 0 1 .468-.108c.3 0 .543.119.73.357.189.238.283.551.283.94 0 .388-.094.701-.283.94a.885.885 0 0 1-.73.357.969.969 0 0 1-.468-.106.85.85 0 0 1-.322-.329Zm1.251-1.564a.59.59 0 0 0-.505-.256.596.596 0 0 0-.508.256c-.122.169-.183.403-.183.702 0 .298.061.533.183.704a.596.596 0 0 0 .508.253.589.589 0 0 0 .505-.253c.123-.171.185-.406.185-.704 0-.299-.062-.533-.185-.702Zm2.253 2.165c-.115.294-.227.486-.336.575a.664.664 0 0 1-.437.135h-.324v-.34h.238a.39.39 0 0 0 .261-.079c.062-.053.13-.178.205-.375l.073-.186-1-2.431h.431l.772 1.933.772-1.933h.43ZM24 9.741v4.029h-.935v-.316h.527v-3.397h-.527v-.316Z"/></svg>
